:SAMPLES-PER-SECOND 30
:FULLY-SPECIFIED
:DEGREES
9
root  35.08523656 36.50779123 -14.91443604 9.761148453 1.0314641 3.060679197
lowerback  -8.445390701 0.5266259313 2.090120792
upperback  -3.933239937 0.2275304943 -2.298769951
thorax  0.6834359765 -0.08089735359 -3.537445068
lowerneck  -16.98520088 1.864940047 1.283800006
upperneck  15.37779999 1.362740636 3.767590046
head  7.516439438 1.031946063 1.176888704
lclavicle  0 -4.497500157e-015 -2.743230041e-014
lhumerus  -43.8669014 24.79789925 72.03520203
lradius  -0.05009648949 -6.507048965e-006 28.10919952
lwrist  4.824992743e-007 -3.790274832e-007 -29.63839912
lhand  -3.515483961e-031 -36.88759995 -10.68879986
lfingers  90 7.125020027 -90
lthumb  94.8109436 -25.52478981 101.0569916
rclavicle  0 -4.497500157e-015 -2.743230041e-014
rhumerus  -49.76610184 -30.02389908 -62.89410019
rradius  -5.16745672e-007 2.214343908e-008 40.61500168
rwrist  1.380293725e-006 2.528095422e-007 -146.5549927
rhand  -2.998106045e-031 -2.410820007 -7.9728899
rfingers  -90 -7.125020027 -90
rthumb  -86.65420532 -7.725004673 -66.49474335
rfemur  -13.4182663 14.97191238 13.45839405
rtibia  -1.180071831 0.8280780911 21.76362038
rfoot  -0.9752469659 -18.81753731 -40.06425476
rtoes  4.101288795 19.59664345 -102.0702057
lfemur  -11.26776409 -17.29128265 -18.27133942
ltibia  1.140977621 1.043056369 16.85091019
lfoot  0.5699373484 -28.61501503 33.86143494
ltoes  -8.770944595 -18.04536057 -116.476799
10
root  35.0851885 36.50385038 -14.91260078 9.771199226 1.031741977 3.052490234
lowerback  -8.463951111 0.5280370116 2.091113329
upperback  -3.915970087 0.2326599956 -2.30637002
thorax  0.7119489908 -0.07965302467 -3.542670012
lowerneck  -17.00749969 1.862079978 1.273390055
upperneck  15.33590031 1.356872559 3.774559975
head  7.506394386 1.031955481 1.180691123
lclavicle  0 -4.497500157e-015 -2.743230041e-014
lhumerus  -43.81880188 24.86380005 72.01909637
lradius  -0.05009648949 -6.507048965e-006 28.09279823
lwrist  4.824992743e-007 -3.790274832e-007 -29.71220016
lhand  -3.515513696e-031 -36.87730026 -10.6899004
lfingers  90 7.125020027 -90
lthumb  94.80857849 -25.52620697 101.0461121
rclavicle  0 -4.497500157e-015 -2.743230041e-014
rhumerus  -49.31689835 -29.37129974 -63.67559814
rradius  -5.16745672e-007 2.214343908e-008 41.39670181
rwrist  1.380293725e-006 2.528095422e-007 -147.8110046
rhand  -3.001985446e-031 -2.338920116 -7.915380001
rfingers  -90 -7.125020027 -90
rthumb  -86.61810303 -7.781740665 -66.4216156
rfemur  -13.43217373 14.93583775 13.45913506
rtibia  -1.173409462 0.8370451331 21.76634598
rfoot  -0.9605714679 -18.80635834 -40.0076828
rtoes  4.121983051 19.59800148 -102.1319275
lfemur  -11.26242447 -17.26332474 -18.26247406
ltibia  1.143172264 1.065873981 16.82993889
lfoot  0.5615299344 -28.6490097 33.83976364
ltoes  -8.793283463 -18.03476524 -116.5489273
11
root  35.08513743 36.51017016 -14.91068742 9.767620087 1.036772132 3.048743248
lowerback  -8.480839729 0.528192997 2.067889929
upperback  -3.912440062 0.230685994 -2.309969902
thorax  0.7246950269 -0.07852522284 -3.533349991
lowerneck  -16.99580002 1.855280042 1.275480032
upperneck  15.27369976 1.352010012 3.772330046
head  7.484109879 1.030400038 1.17809999
lclavicle  0 -4.497500157e-015 -2.743230041e-014
lhumerus  -43.79320145 24.93600082 71.99320221
lradius  -0.05009648949 -6.507048965e-006 28.05430031
lwrist  4.824992743e-007 -3.790274832e-007 -29.83900261
lhand  -3.511569336e-031 -36.87680054 -10.73750019
lfingers  90 7.125020027 -90
lthumb  94.81847382 -25.57306671 101.0499268
rclavicle  0 -4.497500157e-015 -2.743230041e-014
rhumerus  -48.78929901 -28.44669914 -64.54560089
rradius  -5.16745672e-007 2.214343908e-008 42.21689987
rwrist  1.380293725e-006 2.528095422e-007 -149.0090027
rhand  -3.000466838e-031 -2.318650007 -7.938169956
rfingers  -90 -7.125020027 -90
rthumb  -86.62369537 -7.761900902 -66.40319061
rfemur  -13.43759155 14.95040703 13.4709425
rtibia  -1.172819018 0.8698014021 21.79327202
rfoot  -0.9641557336 -18.77326012 -40.000103
rtoes  4.11669445 19.59938049 -102.1161575
lfemur  -11.19625854 -17.28423119 -18.28174019
ltibia  1.17295301 1.070434213 16.74649811
lfoot  0.5438075662 -28.61210632 33.85305023
ltoes  -8.772973061 -18.04440117 -116.483345
12
root  35.08508337 36.51197539 -14.90716258 9.77648735 1.058237433 3.056683779
lowerback  -8.485779762 0.525668025 2.05982995
upperback  -3.907968998 0.2284190059 -2.309420109
thorax  0.7327920198 -0.07746808231 -3.528439999
lowerneck  -16.98600006 1.850430012 1.335180044
upperneck  15.21990013 1.350589991 3.690639973
head  7.465750217 1.025699973 1.140730023
lclavicle  0 -4.497500157e-015 -2.743230041e-014
lhumerus  -43.76959991 24.9144001 72.01100159
lradius  -0.05009648949 -6.507048965e-006 28.05900002
lwrist  4.824992743e-007 -3.790274832e-007 -29.81299973
lhand  -3.514326284e-031 -36.92810059 -10.69699955
lfingers  90 7.125020027 -90
lthumb  94.83393097 -25.53141212 101.1011124
rclavicle  0 -4.497500157e-015 -2.743230041e-014
rhumerus  -48.23609924 -27.52289963 -65.39330292
rradius  -5.16745672e-007 2.214343908e-008 43.16609955
rwrist  1.380293725e-006 2.528095422e-007 -149.7890015
rhand  -3.004440254e-031 -2.416990042 -7.878280163
rfingers  -90 -7.125020027 -90
rthumb  -86.61721039 -7.811462402 -66.49557495
rfemur  -13.44680882 14.93863583 13.46937847
rtibia  -1.174519539 0.8853916526 21.81209564
rfoot  -0.9640471339 -18.74696922 -39.98586655
rtoes  4.115381241 19.60074043 -102.112236
lfemur  -11.16884232 -17.29242325 -18.30379868
ltibia  1.200940967 1.067263484 16.69399071
lfoot  0.5325687528 -28.5727272 33.83773422
ltoes  -8.711322784 -18.07347488 -116.2844696
